<svg width="30" height="30" viewBox="0 0 30 30" fill="none" xmlns="http://www.w3.org/2000/svg">
<circle cx="15" cy="15" r="6" fill="#FFD700" stroke="#4D4D4D" stroke-width="0.5"/>
<path d="M15 2.5C15.8284 2.5 16.5 3.17157 16.5 4C16.5 4.82843 15.8284 5.5 15 5.5C14.1716 5.5 13.5 4.82843 13.5 4C13.5 3.17157 14.1716 2.5 15 2.5Z" fill="#FFD700" stroke="#4D4D4D" stroke-width="0.5"/>
<path d="M15 24.5C15.8284 24.5 16.5 25.1716 16.5 26C16.5 26.8284 15.8284 27.5 15 27.5C14.1716 27.5 13.5 26.8284 13.5 26C13.5 25.1716 14.1716 24.5 15 24.5Z" fill="#FFD700" stroke="#4D4D4D" stroke-width="0.5"/>
<path d="M27.5 15C27.5 15.8284 26.8284 16.5 26 16.5C25.1716 16.5 24.5 15.8284 24.5 15C24.5 14.1716 25.1716 13.5 26 13.5C26.8284 13.5 27.5 14.1716 27.5 15Z" fill="#FFD700" stroke="#4D4D4D" stroke-width="0.5"/>
<path d="M5.5 15C5.5 15.8284 4.82843 16.5 4 16.5C3.17157 16.5 2.5 15.8284 2.5 15C2.5 14.1716 3.17157 13.5 4 13.5C4.82843 13.5 5.5 14.1716 5.5 15Z" fill="#FFD700" stroke="#4D4D4D" stroke-width="0.5"/>
<path d="M23.5355 6.46447C24.3172 7.24615 24.3172 8.51246 23.5355 9.29414C22.7539 10.0758 21.4876 10.0758 20.7059 9.29414C19.9242 8.51246 19.9242 7.24615 20.7059 6.46447C21.4876 5.68279 22.7539 5.68279 23.5355 6.46447Z" fill="#FFD700" stroke="#4D4D4D" stroke-width="0.5"/>
<path d="M9.29414 20.7059C10.0758 21.4876 10.0758 22.7539 9.29414 23.5355C8.51246 24.3172 7.24615 24.3172 6.46447 23.5355C5.68279 22.7539 5.68279 21.4876 6.46447 20.7059C7.24615 19.9242 8.51246 19.9242 9.29414 20.7059Z" fill="#FFD700" stroke="#4D4D4D" stroke-width="0.5"/>
<path d="M23.5355 23.5355C24.3172 22.7539 24.3172 21.4876 23.5355 20.7059C22.7539 19.9242 21.4876 19.9242 20.7059 20.7059C19.9242 21.4876 19.9242 22.7539 20.7059 23.5355C21.4876 24.3172 22.7539 24.3172 23.5355 23.5355Z" fill="#FFD700" stroke="#4D4D4D" stroke-width="0.5"/>
<path d="M9.29414 9.29414C10.0758 8.51246 10.0758 7.24615 9.29414 6.46447C8.51246 5.68279 7.24615 5.68279 6.46447 6.46447C5.68279 7.24615 5.68279 8.51246 6.46447 9.29414C7.24615 10.0758 8.51246 10.0758 9.29414 9.29414Z" fill="#FFD700" stroke="#4D4D4D" stroke-width="0.5"/>
</svg>
